<?xml version="1.0" standalone="no"?>
        <!DOCTYPE svg PUBLIC "-//W3C//DTD SVG 20010904//EN"
         "http://www.w3.org/TR/2001/REC-SVG-20010904/DTD/svg10.dtd">
        <svg version="1.0" xmlns="http://www.w3.org/2000/svg"
         width="300.000000pt" height="300.000000pt" viewBox="0 0 300.000000 300.000000"
         preserveAspectRatio="xMidYMid meet">
        <metadata>
        Created by potrace 1.10, written by Peter Selinger 2001-2011
        </metadata>
        <g transform="translate(0.000000,300.000000) scale(0.100000,-0.100000)"
        fill="#000000" stroke="none">
        <path d="M1365 2858 c-136 -20 -162 -29 -203 -63 -40 -35 -69 -90 -52 -100 5
        -3 11 -1 14 4 3 5 23 12 43 16 21 3 49 14 63 23 28 18 198 42 227 32 34 -13
        143 -19 143 -8 0 5 -15 25 -33 43 -28 28 -55 40 -130 59 -7 2 -39 -1 -72 -6z"/>s8
        <path d="M1785 2803 c-30 -7 -88 -54 -78 -63 4 -5 54 -13 111 -19 57 -5 109
        -14 115 -19 7 -5 30 -15 52 -22 22 -7 51 -22 65 -35 14 -12 47 -36 74 -54 l49
        -32 -6 46 c-12 84 -65 129 -209 179 -71 24 -126 30 -173 19z"/>
        <path d="M1423 2719 c-18 -18 -16 -43 5 -61 12 -11 52 -17 152 -21 84 -4 155
        -12 187 -23 69 -22 103 -14 103 26 0 35 -7 39 -120 65 -98 23 -310 32 -327 14z"/>
        <path d="M1226 2701 c-3 -4 -24 -11 -46 -15 -95 -15 -297 -107 -310 -141 -9
        -25 -3 -43 21 -55 14 -8 33 -2 81 24 49 27 199 82 305 112 24 6 33 40 17 62
        -15 22 -58 30 -68 13z"/>
        <path d="M860 2690 c-40 -7 -39 -6 -130 -66 -112 -73 -140 -114 -140 -207 l0
        -52 50 52 c28 29 50 57 50 62 0 15 156 121 178 121 11 0 33 7 49 15 15 9 40
        20 56 25 15 5 27 14 27 19 0 20 -88 40 -140 31z"/>
        <path d="M1495 2612 c-7 -7 -220 -33 -237 -29 -10 3 -33 0 -51 -5 -17 -6 -39
        -13 -47 -15 -21 -6 31 -47 82 -64 31 -10 51 -10 97 -1 31 7 72 12 89 12 18 0
        47 6 65 14 36 14 92 68 86 82 -4 8 -77 13 -84 6z"/>
        <path d="M1988 2609 c-11 -6 -18 -22 -18 -38 0 -24 7 -32 47 -51 62 -29 181
        -110 243 -165 41 -36 54 -43 72 -36 16 5 24 18 26 37 2 25 -8 38 -80 97 -78
        64 -158 115 -237 152 -18 8 -34 15 -35 15 0 0 -9 -5 -18 -11z"/>
        <path d="M1680 2596 c0 -16 30 -63 57 -88 35 -33 198 -98 247 -98 34 0 106 23
        106 34 0 11 -74 46 -100 46 -16 0 -31 4 -34 9 -4 5 -36 19 -73 31 -37 12 -79
        30 -94 40 -26 19 -109 39 -109 26z"/>
        <path d="M1008 2503 c-27 -14 -48 -29 -48 -33 0 -10 -125 -99 -161 -114 -34
        -15 -103 -75 -94 -84 13 -14 120 -6 150 11 113 65 178 125 195 179 6 22 14 46
        17 54 7 19 -5 17 -59 -13z"/>
        <path d="M2265 2510 c-4 -6 -5 -12 -4 -13 2 -1 22 -16 44 -33 22 -17 50 -34
        62 -38 38 -12 130 -124 174 -212 23 -46 46 -84 49 -84 22 0 26 128 7 172 -17
        38 -125 160 -167 188 -40 27 -152 41 -165 20z"/>
        <path d="M656 2393 c-80 -73 -206 -231 -206 -258 0 -17 33 -45 53 -45 10 0 33
        24 52 55 20 30 80 100 135 156 55 56 100 109 100 119 0 16 -29 50 -43 50 -4 0
        -45 -35 -91 -77z"/>
        <path d="M2169 2368 c-4 -54 5 -94 26 -129 13 -20 28 -39 32 -40 5 -2 26 -26
        48 -52 22 -27 52 -55 68 -63 35 -19 117 -34 117 -23 0 16 -50 89 -60 89 -10 0
        -24 15 -103 110 -99 119 -110 130 -118 130 -5 0 -10 -10 -10 -22z"/>
        <path d="M431 2287 c-49 -16 -91 -64 -144 -167 -57 -109 -63 -169 -23 -235 18
        -28 26 -36 30 -25 26 70 36 106 36 129 0 14 13 51 30 81 16 30 34 65 39 76 5
        12 20 30 33 40 25 20 88 98 88 108 0 9 -51 5 -89 -7z"/>
        <path d="M2429 2247 c-30 -23 -29 -44 5 -89 38 -49 100 -167 131 -247 25 -63
        41 -77 78 -67 29 7 36 39 17 74 -5 9 -24 51 -41 92 -45 107 -141 251 -166 250
        -5 0 -15 -6 -24 -13z"/>
        <path d="M598 2159 c-16 -21 -28 -46 -28 -54 0 -19 -76 -163 -100 -190 -20
        -22 -45 -93 -36 -102 9 -9 89 33 112 58 11 13 40 60 63 103 32 58 43 91 44
        125 2 50 -9 101 -21 101 -4 -1 -19 -19 -34 -41z"/>
        <path d="M2640 2033 c0 -11 42 -93 62 -123 9 -14 21 -43 27 -65 5 -22 14 -56
        19 -76 5 -20 8 -75 6 -123 -5 -102 7 -111 57 -43 30 41 31 44 26 127 -6 94
        -35 194 -69 240 -29 40 -128 88 -128 63z"/>
        <path d="M383 2002 c-22 -14 -85 -213 -100 -316 -15 -99 -15 -100 7 -118 15
        -12 28 -15 43 -9 18 7 24 21 34 87 14 100 47 230 67 269 20 38 20 59 0 79 -17
        18 -32 20 -51 8z"/>
        <path d="M2480 1928 c-24 -53 -25 -83 -4 -173 22 -95 52 -155 93 -182 19 -13
        37 -23 41 -23 12 0 -1 93 -15 116 -7 11 -21 60 -30 110 -23 118 -45 194 -56
        194 -6 0 -19 -19 -29 -42z"/>
        <path d="M201 1713 c-49 -48 -66 -101 -66 -213 0 -112 17 -165 66 -212 46 -44
        75 -51 64 -15 -30 95 -39 300 -18 382 6 22 14 52 18 68 11 40 -15 35 -64 -10z"/>
        <path d="M2644 1719 c-4 -7 -7 -105 -7 -219 0 -114 3 -212 7 -219 4 -6 18 -11
        31 -11 44 0 50 29 50 230 0 201 -6 230 -50 230 -13 0 -27 -5 -31 -11z"/>
        <path d="M399 1683 c-3 -146 1 -396 6 -401 11 -11 65 59 76 98 6 20 9 84 7
        142 -3 99 -5 109 -33 149 -40 57 -55 60 -56 12z"/>
        <path d="M290 1432 c-22 -18 -22 -19 -7 -118 15 -103 78 -302 100 -316 19 -12
        34 -10 51 8 20 20 20 41 0 79 -20 39 -53 169 -67 269 -10 66 -16 80 -34 87
        -15 6 -28 3 -43 -9z"/>
        <path d="M2570 1427 c-19 -12 -43 -37 -53 -55 -20 -33 -57 -186 -57 -231 0
        -31 35 -111 49 -111 11 0 33 76 56 194 9 50 23 99 30 110 14 23 27 116 15 116
        -4 0 -22 -10 -40 -23z"/>
        <path d="M2754 1356 c2 -46 0 -101 -5 -123 -6 -21 -15 -56 -20 -78 -5 -22 -18
        -51 -27 -65 -27 -37 -65 -120 -59 -127 12 -11 80 21 112 54 43 44 76 149 82
        258 5 77 4 82 -26 123 -50 67 -62 58 -57 -42z"/>
        <path d="M430 1181 c0 -21 25 -78 42 -97 23 -26 98 -171 98 -190 0 -16 51 -93
        62 -94 12 0 23 51 21 101 -1 34 -12 67 -44 125 -51 96 -72 120 -123 145 -44
        21 -56 23 -56 10z"/>
        <path d="M2592 1148 c-7 -7 -12 -18 -12 -25 0 -7 -4 -21 -9 -31 -5 -9 -31 -60
        -57 -112 -26 -52 -62 -114 -80 -138 -18 -24 -30 -50 -27 -60 6 -24 38 -43 58
        -35 24 9 117 156 154 243 17 41 36 83 41 92 15 27 12 65 -6 72 -25 9 -49 7
        -62 -6z"/>
        <path d="M262 1111 c-37 -66 -31 -127 25 -233 56 -106 96 -150 150 -166 42
        -12 83 -16 83 -7 0 11 -60 87 -84 106 -13 11 -31 32 -39 47 -8 15 -26 49 -40
        76 -15 27 -27 61 -27 76 0 27 -27 119 -39 133 -4 4 -17 -10 -29 -32z"/>
        <path d="M2430 943 c-62 -9 -109 -35 -151 -86 -24 -29 -47 -54 -52 -56 -4 -1
        -19 -21 -33 -42 -23 -38 -36 -130 -20 -146 8 -9 53 34 81 77 12 19 55 69 96
        110 78 80 122 137 111 143 -4 2 -18 2 -32 0z"/>
        <path d="M465 890 c-22 -24 -18 -33 55 -133 51 -71 173 -195 217 -220 18 -11
        53 18 53 43 0 10 -45 63 -100 119 -55 56 -115 126 -135 156 -38 59 -60 68 -90
        35z"/>
        <path d="M2542 787 c-45 -88 -129 -192 -171 -211 -42 -18 -110 -70 -107 -81 5
        -18 103 -17 141 1 43 20 173 157 191 201 21 48 16 173 -6 173 -3 0 -26 -37
        -48 -83z"/>
        <path d="M718 734 c-10 -3 -18 -9 -18 -12 0 -10 71 -65 100 -78 36 -16 160
        -104 160 -114 0 -9 100 -63 106 -58 9 10 -32 109 -55 132 -28 28 -107 85 -154
        111 -29 17 -110 27 -139 19z"/>
        <path d="M2261 646 c-60 -53 -186 -139 -246 -167 -38 -18 -45 -26 -45 -50 0
        -56 43 -56 135 0 17 10 48 28 69 40 22 12 72 50 112 84 58 49 74 68 74 89 0
        17 -7 31 -19 38 -27 14 -25 15 -80 -34z"/>
        <path d="M590 583 c0 -93 28 -134 140 -208 95 -62 106 -66 161 -67 52 0 109
        17 109 33 0 5 -12 14 -27 19 -16 6 -40 17 -55 25 -14 8 -36 15 -48 15 -24 0
        -180 105 -180 121 0 5 -22 33 -50 62 l-50 52 0 -52z"/>
        <path d="M1848 551 c-48 -20 -99 -47 -114 -61 -24 -23 -54 -70 -54 -86 0 -12
        83 7 109 25 14 10 55 28 91 41 36 12 69 26 75 31 5 5 23 9 40 9 16 0 47 11 68
        24 l38 23 -41 17 c-60 24 -114 18 -212 -23z"/>
        <path d="M881 501 c-26 -26 -17 -56 23 -78 67 -39 194 -91 251 -103 33 -7 64
        -17 70 -22 17 -15 54 -8 69 14 13 19 14 25 2 42 -7 12 -26 24 -42 28 -102 24
        -233 74 -298 112 -53 31 -51 31 -75 7z"/>
        <path d="M1215 490 c-54 -28 -74 -48 -54 -54 44 -14 77 -20 104 -18 17 2 73
        -4 125 -13 111 -18 190 -24 196 -14 8 14 -85 88 -118 93 -181 28 -209 28 -253
        6z"/>
        <path d="M2132 417 c-19 -12 -50 -36 -70 -53 -21 -17 -55 -37 -77 -44 -22 -7
        -45 -17 -52 -22 -6 -5 -58 -14 -115 -19 -57 -6 -107 -14 -111 -18 -17 -16 63
        -62 116 -68 90 -9 267 62 315 127 19 24 44 122 31 119 -2 0 -19 -11 -37 -22z"/>
        <path d="M1756 384 c-21 -8 -100 -17 -175 -20 -100 -5 -141 -11 -153 -22 -22
        -19 -23 -45 -3 -62 21 -17 227 -8 325 15 112 26 120 30 120 64 0 44 -38 52
        -114 25z"/>
        <path d="M1107 304 c-12 -13 17 -66 55 -99 42 -35 70 -43 210 -62 54 -7 77 -6
        120 8 48 16 108 65 108 88 0 10 -112 3 -143 -9 -29 -10 -199 14 -227 32 -14 9
        -41 19 -60 23 -19 4 -40 11 -46 16 -6 5 -13 6 -17 3z"/>
        </g>
        </svg>